<svg width="33" height="33" viewBox="0 0 33 33" fill="none" xmlns="http://www.w3.org/2000/svg">
<path fill-rule="evenodd" clip-rule="evenodd" d="M3.25027 1.38187C3.25027 1.17097 3.42851 1 3.64837 1H32.3115C32.5313 1 32.7096 1.17097 32.7096 1.38187V29.0039C32.7096 29.2148 32.5313 29.3858 32.3115 29.3858C32.0916 29.3858 31.9134 29.2148 31.9134 29.0039V1.76374H3.64837C3.42851 1.76374 3.25027 1.59277 3.25027 1.38187Z" fill="white" stroke="white" stroke-width="0.5" stroke-linecap="round" stroke-linejoin="round"/>
<path d="M3.6681 29.5625L3.7931 29.5625L3.7931 29.4375L3.79309 5.67881L5.41897 7.30468C5.62202 7.50773 5.95124 7.50773 6.1543 7.30468C6.35735 7.10162 6.35735 6.7724 6.1543 6.56935L3.6408 4.05585C3.43775 3.85279 3.10853 3.85279 2.90547 4.05585L0.391976 6.56935C0.18892 6.7724 0.18892 7.10162 0.391976 7.30468C0.595033 7.50773 0.924251 7.50773 1.12731 7.30468L2.75318 5.67881L2.75318 29.4375L2.75318 29.5625L2.87818 29.5625L3.6681 29.5625Z" fill="white" stroke="white" stroke-width="0.25"/>
<path d="M2.7522 29.8317V29.9567H2.8772L26.7603 29.9567L25.1262 31.5824C24.922 31.7855 24.922 32.1151 25.1262 32.3182C25.33 32.5209 25.6602 32.5209 25.864 32.3182L28.3906 29.8047C28.5947 29.6016 28.5947 29.272 28.3906 29.0689L25.864 26.5554C25.6602 26.3526 25.33 26.3526 25.1262 26.5554C24.922 26.7585 24.922 27.0881 25.1262 27.2912L26.7603 28.9168L2.8772 28.9168H2.7522V29.0418V29.8317Z" fill="white" stroke="white" stroke-width="0.25"/>
<path fill-rule="evenodd" clip-rule="evenodd" d="M14.1625 1.11568C14.3167 1.26992 14.3167 1.51999 14.1625 1.67423L9.42298 6.41373C9.26874 6.56797 9.01867 6.56797 8.86443 6.41373C8.71019 6.25949 8.71019 6.00941 8.86443 5.85517L13.6039 1.11568C13.7582 0.96144 14.0082 0.96144 14.1625 1.11568Z" fill="white" stroke="white" stroke-width="0.5" stroke-linecap="round" stroke-linejoin="round"/>
<path fill-rule="evenodd" clip-rule="evenodd" d="M32.4623 19.9423C32.6165 20.0966 32.6165 20.3467 32.4623 20.5009L28.1177 24.8454C27.9635 24.9997 27.7134 24.9997 27.5592 24.8454C27.4049 24.6912 27.4049 24.4411 27.5592 24.2869L31.9037 19.9423C32.0579 19.7881 32.308 19.7881 32.4623 19.9423Z" fill="white" stroke="white" stroke-width="0.5" stroke-linecap="round" stroke-linejoin="round"/>
<path fill-rule="evenodd" clip-rule="evenodd" d="M20.0851 1.11391C20.2403 1.26716 20.2419 1.51723 20.0886 1.67245L9.81975 12.073C9.66649 12.2282 9.41642 12.2298 9.2612 12.0766C9.10598 11.9233 9.10439 11.6732 9.25765 11.518L19.5265 1.11746C19.6798 0.962245 19.9299 0.960652 20.0851 1.11391Z" fill="white" stroke="white" stroke-width="0.5" stroke-linecap="round" stroke-linejoin="round"/>
<path fill-rule="evenodd" clip-rule="evenodd" d="M32.5938 13.3593C32.7481 13.5136 32.7481 13.7636 32.5938 13.9179L22.5882 23.9235C22.434 24.0777 22.1839 24.0777 22.0297 23.9235C21.8754 23.7692 21.8754 23.5192 22.0297 23.3649L32.0353 13.3593C32.1895 13.2051 32.4396 13.2051 32.5938 13.3593Z" fill="white" stroke="white" stroke-width="0.5" stroke-linecap="round" stroke-linejoin="round"/>
<path fill-rule="evenodd" clip-rule="evenodd" d="M26.4084 1.24978C26.5614 1.40526 26.5594 1.65532 26.4039 1.80831L9.94736 18.0016C9.79188 18.1546 9.54182 18.1526 9.38883 17.9971C9.23584 17.8416 9.23785 17.5915 9.39333 17.4385L25.8499 1.24527C26.0054 1.09228 26.2554 1.0943 26.4084 1.24978Z" fill="white" stroke="white" stroke-width="0.5" stroke-linecap="round" stroke-linejoin="round"/>
<path fill-rule="evenodd" clip-rule="evenodd" d="M32.5939 7.17183C32.7481 7.32607 32.7481 7.57615 32.5939 7.73039L16.0057 24.3186C15.8514 24.4728 15.6014 24.4728 15.4471 24.3186C15.2929 24.1644 15.2929 23.9143 15.4471 23.7601L32.0354 7.17183C32.1896 7.01759 32.4397 7.01759 32.5939 7.17183Z" fill="white" stroke="white" stroke-width="0.5" stroke-linecap="round" stroke-linejoin="round"/>
<path fill-rule="evenodd" clip-rule="evenodd" d="M32.3306 1.24752C32.4848 1.40176 32.4848 1.65183 32.3306 1.80607L9.68635 24.4503C9.53211 24.6046 9.28204 24.6046 9.1278 24.4503C8.97356 24.2961 8.97356 24.046 9.1278 23.8918L31.772 1.24752C31.9263 1.09328 32.1764 1.09328 32.3306 1.24752Z" fill="white" stroke="white" stroke-width="0.5" stroke-linecap="round" stroke-linejoin="round"/>
</svg>
